<?xml version="1.0" encoding="utf-8"?>
<!-- Generator: Adobe Illustrator 18.1.1, SVG Export Plug-In . SVG Version: 6.00 Build 0)  -->
<svg version="1.1" id="Layer_1" xmlns="http://www.w3.org/2000/svg" xmlns:xlink="http://www.w3.org/1999/xlink" x="0px" y="0px"
	 viewBox="-69 242 750 270" enable-background="new -69 242 750 270" xml:space="preserve">
<g>
	<g>
		<path fill="#4E2485" d="M49.3,456.4c-12.5-9.6-17.6-22.7-17.6-38.6v-42c0-17.6-17.6-23.3-31.8-23.3v-6.2
			c14.7,0,31.8-5.7,31.8-23.3v-42.5c0-15.9,5.1-28.9,17.6-38.6l4,5.1C42,255.6,38,267,38,280.6v42.5c0,11.3-9.6,23.8-22.7,26.1
			c13,2.3,22.7,14.7,22.7,26.1v42c0,13.6,4,25,15.3,33.5L49.3,456.4z"/>
		<path fill="#4E2485" d="M127.6,354.3c-5.1,0-8.5-4-8.5-8.5c0-2.8,1.1-5.1,3.4-6.8c-4-1.7-9.1-2.8-13.6-2.8
			c-17,0-31.2,14.7-31.2,31.8c0,17.6,16.4,31.8,33.5,31.8c8.5,0,17.6-1.1,24.4-6.2v7.9c-7.4,4-15.9,5.1-24.4,5.1
			c-21,0-40.3-17-40.3-38.6c0-21,17-38.6,38-38.6c9.6,0,27.2,4,27.2,15.9C136.1,350.3,132.2,354.3,127.6,354.3z"/>
		<path fill="#4E2485" d="M208.7,402.5c-4,2.8-9.1,3.4-13.6,3.4c-12.5,0-19.3-9.6-19.3-21V245.4h6.8v139.5c0,7.4,4,14.2,12.5,14.2
			c5.7,0,9.6-1.1,13.6-5.1L208.7,402.5L208.7,402.5z"/>
		<path fill="#4E2485" d="M326.1,403.1c-4,2.8-9.1,3.4-13.6,3.4c-11.3,0-18.2-8.5-18.7-19.3c-6.2,11.9-18.2,18.7-31.2,18.7
			c-21,0-38-17.6-38-38.6c0-21,17-38.6,38-38.6c13.6,0,25,7.4,31.2,18.7V331h6.8v53.9c0,7.4,4,14.2,12.5,14.2
			c5.7,0,9.6-1.1,13.6-5.1v9.1L326.1,403.1L326.1,403.1z M293.2,363.9c0-2.3-1.7-6.8-2.3-9.1c-5.1-11.3-16.4-18.7-28.9-18.7
			c-17,0-31.2,14.7-31.2,31.8s13.6,31.8,31.2,31.8c12.5,0,23.8-7.9,28.9-19.3c1.1-1.7,2.3-6.8,2.3-8.5V363.9z"/>
		<path fill="#4E2485" d="M350.5,406.5c-5.7,0-10.8-1.1-15.3-4V394c4.5,4,9.1,5.7,15.3,5.7c7.4,0,13.6-6.2,13.6-13.6
			c0-7.9-4.5-13-9.6-18.7c-5.1-5.7-10.8-11.9-10.8-21.6c0-7.4,4.5-14.2,10.8-17.6l3.4,6.2c-4,2.3-7.4,6.8-7.4,11.3
			c0,6.8,4.5,11.9,9.6,17c5.1,6.2,11.3,12.5,11.3,22.7C370.9,396.8,361.9,406.5,350.5,406.5z"/>
		<path fill="#4E2485" d="M411.2,406.5c-5.7,0-10.8-1.1-15.3-4V394c4.5,4,9.1,5.7,15.3,5.7c7.4,0,13.6-6.2,13.6-13.6
			c0-7.9-4.5-13-9.6-18.7c-5.1-5.7-10.8-11.9-10.8-21.6c0-7.4,4.5-14.2,10.8-17.6l3.4,6.2c-4,2.3-7.4,6.8-7.4,11.3
			c0,6.8,4.5,11.9,9.6,17c5.1,6.2,11.3,12.5,11.3,22.7C431.6,396.8,422.6,406.5,411.2,406.5z"/>
		<path fill="#4E2485" d="M532,420.1c0,15.9-10.8,32.3-26.7,35.7l-1.7-6.2c12.5-2.8,21-17,21-29.5v-30.6c-4.5,9.6-13,16.4-23.8,16.4
			c-19.3,0-30.1-12.5-30.1-31.2v-43.1h6.8v43.1c0,14.7,7.9,25,23.3,25c13.6,0,23.8-14.2,23.8-27.2v-40.8h6.8L532,420.1L532,420.1z"
			/>
		<path fill="#4E2485" d="M562.7,242.6c12.5,9.6,17.6,22.7,17.6,38.6v42c0,17.6,17.6,23.3,31.8,23.3v6.2c-14.7,0-31.8,5.7-31.8,23.3
			v42.5c0,15.9-5.1,28.9-17.6,38.6l-4-5.1C570,443.4,574,432,574,418.4v-42.5c0-11.3,9.6-23.8,22.7-26.1
			c-13-2.3-22.7-14.7-22.7-26.1v-42c0-13.6-4-25-15.3-33.5L562.7,242.6z"/>
	</g>
</g>
<g>
	<path fill="#4E2485" d="M161.1,467.2l-3.4,4c-2.8-2.3-5.7-3.4-9.1-3.4c-6.8,0-13,4.5-13,18.7c0,13.6,5.7,18.7,13,18.7
		c4.5,0,7.4-1.7,10.2-4l3.4,4c-2.3,2.8-6.8,5.1-13.6,5.1c-11.3,0-19.9-8.5-19.9-24.4c0-15.9,9.1-24.4,19.3-24.4
		C154.3,462.1,157.7,463.8,161.1,467.2z"/>
	<path fill="#4E2485" d="M196.2,467.7l-3.4,4c-3.4-2.8-6.8-4-10.8-4c-4.5,0-8.5,2.3-8.5,6.8c0,4,1.7,5.7,10.2,8.5
		c7.4,2.3,13.6,5.1,13.6,14.2c0,7.9-6.2,13.6-17,13.6c-6.8,0-11.9-2.3-15.9-6.2l4-4c3.4,2.8,6.8,5.1,11.9,5.1
		c5.7,0,10.2-2.8,10.2-8.5c0-4.5-2.3-6.8-10.2-9.1c-9.1-2.8-13.6-6.2-13.6-13.6c0-7.4,6.2-12.5,14.7-12.5
		C188.3,462.1,192.3,464.3,196.2,467.7z"/>
	<path fill="#4E2485" d="M232.5,467.7l-3.4,4c-3.4-2.8-6.8-4-10.8-4c-4.5,0-8.5,2.3-8.5,6.8c0,4,1.7,5.7,10.2,8.5
		c7.4,2.3,13.6,5.1,13.6,14.2c0,7.9-6.2,13.6-17,13.6c-6.8,0-11.9-2.3-15.9-6.2l4-4c3.4,2.8,6.8,5.1,11.9,5.1
		c5.7,0,10.2-2.8,10.2-8.5c0-4.5-2.3-6.8-10.2-9.1c-9.1-2.8-13.6-6.2-13.6-13.6c0-7.4,6.2-12.5,14.7-12.5
		C224.6,462.1,228.6,464.3,232.5,467.7z"/>
	<path fill="#4E2485" d="M284.7,484.8v5.1h-10.2v10.2h-5.7v-10.2h-9.6v-5.1h9.6v-10.2h5.7v10.2H284.7z"/>
	<path fill="#4E2485" d="M319.9,489.9v19.9h-6.2v-47.1h12.5c11.9,0,17.6,4.5,17.6,13c0,6.8-3.4,10.8-10.2,12.5l12.5,21H338
		l-11.3-19.9L319.9,489.9L319.9,489.9z M336.9,476.3c0-5.7-3.4-8.5-10.8-8.5h-5.7v17h6.8C332.9,485.3,336.9,482.5,336.9,476.3z"/>
	<path fill="#4E2485" d="M379.5,494.4h-22.7c0.6,8.5,4.5,11.3,9.6,11.3c3.4,0,6.2-1.1,9.1-3.4l2.8,4c-3.4,2.8-7.4,4.5-12.5,4.5
		c-10.2,0-15.9-6.8-15.9-18.2c0-11.3,5.7-19.3,14.7-19.3c9.6,0,14.7,6.8,14.7,17.6C380,492.1,379.5,493.3,379.5,494.4z M373.8,489.3
		c0-6.8-2.8-10.8-8.5-10.8c-4.5,0-7.9,3.4-8.5,11.3L373.8,489.3L373.8,489.3z"/>
	<path fill="#4E2485" d="M417.5,506.3l-1.7,4.5c-3.4-0.6-5.7-1.7-6.8-5.1c-2.3,4-6.2,5.1-10.8,5.1c-7.4,0-11.3-4.5-11.3-10.8
		c0-7.9,5.7-11.9,15.9-11.9h5.7v-2.8c0-5.1-2.3-6.8-7.4-6.8c-2.8,0-6.2,0.6-9.6,1.7l-1.7-4.5c4.5-1.7,8.5-2.3,12.5-2.3
		c8.5,0,12.5,4.5,12.5,11.9v16.4C414.1,504.6,415.2,505.7,417.5,506.3z M407.8,500.6v-8.5h-4.5c-6.8,0-10.2,2.3-10.2,7.4
		c0,4,2.3,6.2,6.2,6.2C403.3,506.3,406.1,504,407.8,500.6z"/>
	<path fill="#4E2485" d="M450.9,477.4l-2.8,4c-2.3-1.7-4.5-2.8-7.4-2.8c-5.7,0-9.1,4.5-9.1,13.6c0,9.6,3.4,13,9.1,13
		c2.8,0,5.1-1.1,7.9-2.8l2.8,4.5c-3.4,2.8-6.8,4-10.8,4c-9.6,0-15.9-6.8-15.9-18.7c0-11.3,5.7-19.3,15.9-19.3
		C444.7,473.4,448.1,474.5,450.9,477.4z"/>
	<path fill="#4E2485" d="M469.6,510.8c-6.2,0-9.6-3.4-9.6-10.2v-21.6h-6.2V474h6.2V466l6.2-0.6v9.1h8.5l-0.6,5.1h-7.9v21.6
		c0,3.4,1.1,5.1,4.5,5.1c1.7,0,2.8-0.6,4.5-1.7l2.3,4.5C475.3,510.3,473,510.8,469.6,510.8z"/>
</g>
</svg>
