<?xml version="1.0" encoding="utf-8"?>
<!-- Generator: Adobe Illustrator 18.1.1, SVG Export Plug-In . SVG Version: 6.00 Build 0)  -->
<svg version="1.1" id="Layer_1" xmlns="http://www.w3.org/2000/svg" xmlns:xlink="http://www.w3.org/1999/xlink" x="0px" y="0px"
	 viewBox="240.6 370.5 107.9 47.4" enable-background="new 240.6 370.5 107.9 47.4" xml:space="preserve">
<g>
	<g>
		<path fill="#FFFFFF" d="M249.3,408.3c-2.2-1.7-3.1-4-3.1-6.8v-7.4c0-3.1-3.1-4.1-5.6-4.1v-1.1c2.6,0,5.6-1,5.6-4.1v-7.5
			c0-2.8,0.9-5.1,3.1-6.8l0.7,0.9c-2,1.5-2.7,3.5-2.7,5.9v7.5c0,2-1.7,4.2-4,4.6c2.3,0.4,4,2.6,4,4.6v7.4c0,2.4,0.7,4.4,2.7,5.9
			L249.3,408.3z"/>
		<path fill="#FFFFFF" d="M263.1,390.3c-0.9,0-1.5-0.7-1.5-1.5c0-0.5,0.2-0.9,0.6-1.2c-0.7-0.3-1.6-0.5-2.4-0.5
			c-3,0-5.5,2.6-5.5,5.6c0,3.1,2.9,5.6,5.9,5.6c1.5,0,3.1-0.2,4.3-1.1v1.4c-1.3,0.7-2.8,0.9-4.3,0.9c-3.7,0-7.1-3-7.1-6.8
			c0-3.7,3-6.8,6.7-6.8c1.7,0,4.8,0.7,4.8,2.8C264.6,389.6,263.9,390.3,263.1,390.3z"/>
		<path fill="#FFFFFF" d="M277.4,398.8c-0.7,0.5-1.6,0.6-2.4,0.6c-2.2,0-3.4-1.7-3.4-3.7v-24.6h1.2v24.6c0,1.3,0.7,2.5,2.2,2.5
			c1,0,1.7-0.2,2.4-0.9L277.4,398.8L277.4,398.8z"/>
		<path fill="#FFFFFF" d="M298.1,398.9c-0.7,0.5-1.6,0.6-2.4,0.6c-2,0-3.2-1.5-3.3-3.4c-1.1,2.1-3.2,3.3-5.5,3.3
			c-3.7,0-6.7-3.1-6.7-6.8c0-3.7,3-6.8,6.7-6.8c2.4,0,4.4,1.3,5.5,3.3v-2.9h1.2v9.5c0,1.3,0.7,2.5,2.2,2.5c1,0,1.7-0.2,2.4-0.9v1.6
			H298.1z M292.3,392c0-0.4-0.3-1.2-0.4-1.6c-0.9-2-2.9-3.3-5.1-3.3c-3,0-5.5,2.6-5.5,5.6s2.4,5.6,5.5,5.6c2.2,0,4.2-1.4,5.1-3.4
			c0.2-0.3,0.4-1.2,0.4-1.5V392z"/>
		<path fill="#FFFFFF" d="M302.4,399.5c-1,0-1.9-0.2-2.7-0.7v-1.5c0.8,0.7,1.6,1,2.7,1c1.3,0,2.4-1.1,2.4-2.4c0-1.4-0.8-2.3-1.7-3.3
			c-0.9-1-1.9-2.1-1.9-3.8c0-1.3,0.8-2.5,1.9-3.1l0.6,1.1c-0.7,0.4-1.3,1.2-1.3,2c0,1.2,0.8,2.1,1.7,3c0.9,1.1,2,2.2,2,4
			C306,397.8,304.4,399.5,302.4,399.5z"/>
		<path fill="#FFFFFF" d="M313.1,399.5c-1,0-1.9-0.2-2.7-0.7v-1.5c0.8,0.7,1.6,1,2.7,1c1.3,0,2.4-1.1,2.4-2.4c0-1.4-0.8-2.3-1.7-3.3
			c-0.9-1-1.9-2.1-1.9-3.8c0-1.3,0.8-2.5,1.9-3.1l0.6,1.1c-0.7,0.4-1.3,1.2-1.3,2c0,1.2,0.8,2.1,1.7,3c0.9,1.1,2,2.2,2,4
			C316.7,397.8,315.1,399.5,313.1,399.5z"/>
		<path fill="#FFFFFF" d="M334.4,401.9c0,2.8-1.9,5.7-4.7,6.3l-0.3-1.1c2.2-0.5,3.7-3,3.7-5.2v-5.4c-0.8,1.7-2.3,2.9-4.2,2.9
			c-3.4,0-5.3-2.2-5.3-5.5v-7.6h1.2v7.6c0,2.6,1.4,4.4,4.1,4.4c2.4,0,4.2-2.5,4.2-4.8v-7.2h1.2L334.4,401.9L334.4,401.9z"/>
		<path fill="#FFFFFF" d="M339.8,370.6c2.2,1.7,3.1,4,3.1,6.8v7.4c0,3.1,3.1,4.1,5.6,4.1v1.1c-2.6,0-5.6,1-5.6,4.1v7.5
			c0,2.8-0.9,5.1-3.1,6.8l-0.7-0.9c2-1.5,2.7-3.5,2.7-5.9v-7.5c0-2,1.7-4.2,4-4.6c-2.3-0.4-4-2.6-4-4.6v-7.4c0-2.4-0.7-4.4-2.7-5.9
			L339.8,370.6z"/>
	</g>
</g>
<g>
	<path fill="#FFFFFF" d="M269,410.2l-0.6,0.7c-0.5-0.4-1-0.6-1.6-0.6c-1.2,0-2.3,0.8-2.3,3.3c0,2.4,1,3.3,2.3,3.3
		c0.8,0,1.3-0.3,1.8-0.7l0.6,0.7c-0.4,0.5-1.2,0.9-2.4,0.9c-2,0-3.5-1.5-3.5-4.3s1.6-4.3,3.4-4.3C267.8,409.3,268.4,409.6,269,410.2
		z"/>
	<path fill="#FFFFFF" d="M275.2,410.3l-0.6,0.7c-0.6-0.5-1.2-0.7-1.9-0.7c-0.8,0-1.5,0.4-1.5,1.2c0,0.7,0.3,1,1.8,1.5
		c1.3,0.4,2.4,0.9,2.4,2.5c0,1.4-1.1,2.4-3,2.4c-1.2,0-2.1-0.4-2.8-1.1l0.7-0.7c0.6,0.5,1.2,0.9,2.1,0.9c1,0,1.8-0.5,1.8-1.5
		c0-0.8-0.4-1.2-1.8-1.6c-1.6-0.5-2.4-1.1-2.4-2.4s1.1-2.2,2.6-2.2C273.8,409.3,274.5,409.7,275.2,410.3z"/>
	<path fill="#FFFFFF" d="M281.6,410.3L281,411c-0.6-0.5-1.2-0.7-1.9-0.7c-0.8,0-1.5,0.4-1.5,1.2c0,0.7,0.3,1,1.8,1.5
		c1.3,0.4,2.4,0.9,2.4,2.5c0,1.4-1.1,2.4-3,2.4c-1.2,0-2.1-0.4-2.8-1.1l0.7-0.7c0.6,0.5,1.2,0.9,2.1,0.9c1,0,1.8-0.5,1.8-1.5
		c0-0.8-0.4-1.2-1.8-1.6c-1.6-0.5-2.4-1.1-2.4-2.4s1.1-2.2,2.6-2.2C280.2,409.3,280.9,409.7,281.6,410.3z"/>
	<path fill="#FFFFFF" d="M290.8,413.3v0.9H289v1.8h-1v-1.8h-1.7v-0.9h1.7v-1.8h1v1.8H290.8z"/>
	<path fill="#FFFFFF" d="M297,414.2v3.5h-1.1v-8.3h2.2c2.1,0,3.1,0.8,3.1,2.3c0,1.2-0.6,1.9-1.8,2.2l2.2,3.7h-1.4l-2-3.5L297,414.2
		L297,414.2z M300,411.8c0-1-0.6-1.5-1.9-1.5h-1v3h1.2C299.3,413.4,300,412.9,300,411.8z"/>
	<path fill="#FFFFFF" d="M307.5,415h-4c0.1,1.5,0.8,2,1.7,2c0.6,0,1.1-0.2,1.6-0.6l0.5,0.7c-0.6,0.5-1.3,0.8-2.2,0.8
		c-1.8,0-2.8-1.2-2.8-3.2s1-3.4,2.6-3.4c1.7,0,2.6,1.2,2.6,3.1C307.6,414.6,307.5,414.8,307.5,415z M306.5,414.1
		c0-1.2-0.5-1.9-1.5-1.9c-0.8,0-1.4,0.6-1.5,2L306.5,414.1L306.5,414.1z"/>
	<path fill="#FFFFFF" d="M314.2,417.1l-0.3,0.8c-0.6-0.1-1-0.3-1.2-0.9c-0.4,0.7-1.1,0.9-1.9,0.9c-1.3,0-2-0.8-2-1.9
		c0-1.4,1-2.1,2.8-2.1h1v-0.5c0-0.9-0.4-1.2-1.3-1.2c-0.5,0-1.1,0.1-1.7,0.3l-0.3-0.8c0.8-0.3,1.5-0.4,2.2-0.4
		c1.5,0,2.2,0.8,2.2,2.1v2.9C313.6,416.8,313.8,417,314.2,417.1z M312.5,416.1v-1.5h-0.8c-1.2,0-1.8,0.4-1.8,1.3
		c0,0.7,0.4,1.1,1.1,1.1C311.7,417.1,312.2,416.7,312.5,416.1z"/>
	<path fill="#FFFFFF" d="M320.1,412l-0.5,0.7c-0.4-0.3-0.8-0.5-1.3-0.5c-1,0-1.6,0.8-1.6,2.4c0,1.7,0.6,2.3,1.6,2.3
		c0.5,0,0.9-0.2,1.4-0.5l0.5,0.8c-0.6,0.5-1.2,0.7-1.9,0.7c-1.7,0-2.8-1.2-2.8-3.3c0-2,1-3.4,2.8-3.4
		C319,411.3,319.6,411.5,320.1,412z"/>
	<path fill="#FFFFFF" d="M323.4,417.9c-1.1,0-1.7-0.6-1.7-1.8v-3.8h-1.1v-0.9h1.1V410l1.1-0.1v1.6h1.5l-0.1,0.9h-1.4v3.8
		c0,0.6,0.2,0.9,0.8,0.9c0.3,0,0.5-0.1,0.8-0.3l0.4,0.8C324.4,417.8,324,417.9,323.4,417.9z"/>
</g>
</svg>
