<?xml version="1.0" encoding="utf-8"?>
<!-- Generator: Adobe Illustrator 18.1.1, SVG Export Plug-In . SVG Version: 6.00 Build 0)  -->
<svg version="1.1" id="Layer_1" xmlns="http://www.w3.org/2000/svg" xmlns:xlink="http://www.w3.org/1999/xlink" x="0px" y="0px"
	 viewBox="240.6 370.5 107.9 37.9" enable-background="new 240.6 370.5 107.9 37.9" xml:space="preserve">
<g>
	<g>
		<path fill="#FFFFFF" d="M249.3,408.3c-2.2-1.7-3.1-4-3.1-6.8v-7.4c0-3.1-3.1-4.1-5.6-4.1v-1.1c2.6,0,5.6-1,5.6-4.1v-7.5
			c0-2.8,0.9-5.1,3.1-6.8l0.7,0.9c-2,1.5-2.7,3.5-2.7,5.9v7.5c0,2-1.7,4.2-4,4.6c2.3,0.4,4,2.6,4,4.6v7.4c0,2.4,0.7,4.4,2.7,5.9
			L249.3,408.3z"/>
		<path fill="#FFFFFF" d="M263.1,390.3c-0.9,0-1.5-0.7-1.5-1.5c0-0.5,0.2-0.9,0.6-1.2c-0.7-0.3-1.6-0.5-2.4-0.5
			c-3,0-5.5,2.6-5.5,5.6c0,3.1,2.9,5.6,5.9,5.6c1.5,0,3.1-0.2,4.3-1.1v1.4c-1.3,0.7-2.8,0.9-4.3,0.9c-3.7,0-7.1-3-7.1-6.8
			c0-3.7,3-6.8,6.7-6.8c1.7,0,4.8,0.7,4.8,2.8C264.6,389.6,263.9,390.3,263.1,390.3z"/>
		<path fill="#FFFFFF" d="M277.4,398.8c-0.7,0.5-1.6,0.6-2.4,0.6c-2.2,0-3.4-1.7-3.4-3.7v-24.6h1.2v24.6c0,1.3,0.7,2.5,2.2,2.5
			c1,0,1.7-0.2,2.4-0.9L277.4,398.8L277.4,398.8z"/>
		<path fill="#FFFFFF" d="M298.1,398.9c-0.7,0.5-1.6,0.6-2.4,0.6c-2,0-3.2-1.5-3.3-3.4c-1.1,2.1-3.2,3.3-5.5,3.3
			c-3.7,0-6.7-3.1-6.7-6.8c0-3.7,3-6.8,6.7-6.8c2.4,0,4.4,1.3,5.5,3.3v-2.9h1.2v9.5c0,1.3,0.7,2.5,2.2,2.5c1,0,1.7-0.2,2.4-0.9v1.6
			H298.1z M292.3,392c0-0.4-0.3-1.2-0.4-1.6c-0.9-2-2.9-3.3-5.1-3.3c-3,0-5.5,2.6-5.5,5.6s2.4,5.6,5.5,5.6c2.2,0,4.2-1.4,5.1-3.4
			c0.2-0.3,0.4-1.2,0.4-1.5V392z"/>
		<path fill="#FFFFFF" d="M302.4,399.5c-1,0-1.9-0.2-2.7-0.7v-1.5c0.8,0.7,1.6,1,2.7,1c1.3,0,2.4-1.1,2.4-2.4c0-1.4-0.8-2.3-1.7-3.3
			c-0.9-1-1.9-2.1-1.9-3.8c0-1.3,0.8-2.5,1.9-3.1l0.6,1.1c-0.7,0.4-1.3,1.2-1.3,2c0,1.2,0.8,2.1,1.7,3c0.9,1.1,2,2.2,2,4
			C306,397.8,304.4,399.5,302.4,399.5z"/>
		<path fill="#FFFFFF" d="M313.1,399.5c-1,0-1.9-0.2-2.7-0.7v-1.5c0.8,0.7,1.6,1,2.7,1c1.3,0,2.4-1.1,2.4-2.4c0-1.4-0.8-2.3-1.7-3.3
			c-0.9-1-1.9-2.1-1.9-3.8c0-1.3,0.8-2.5,1.9-3.1l0.6,1.1c-0.7,0.4-1.3,1.2-1.3,2c0,1.2,0.8,2.1,1.7,3c0.9,1.1,2,2.2,2,4
			C316.7,397.8,315.1,399.5,313.1,399.5z"/>
		<path fill="#FFFFFF" d="M334.4,401.9c0,2.8-1.9,5.7-4.7,6.3l-0.3-1.1c2.2-0.5,3.7-3,3.7-5.2v-5.4c-0.8,1.7-2.3,2.9-4.2,2.9
			c-3.4,0-5.3-2.2-5.3-5.5v-7.6h1.2v7.6c0,2.6,1.4,4.4,4.1,4.4c2.4,0,4.2-2.5,4.2-4.8v-7.2h1.2L334.4,401.9L334.4,401.9z"/>
		<path fill="#FFFFFF" d="M339.8,370.6c2.2,1.7,3.1,4,3.1,6.8v7.4c0,3.1,3.1,4.1,5.6,4.1v1.1c-2.6,0-5.6,1-5.6,4.1v7.5
			c0,2.8-0.9,5.1-3.1,6.8l-0.7-0.9c2-1.5,2.7-3.5,2.7-5.9v-7.5c0-2,1.7-4.2,4-4.6c-2.3-0.4-4-2.6-4-4.6v-7.4c0-2.4-0.7-4.4-2.7-5.9
			L339.8,370.6z"/>
	</g>
</g>
</svg>
